<svg id="visual" viewBox="0 0 1700 120" width="1700" height="120" xmlns="http://www.w3.org/2000/svg" xmlns:xlink="http://www.w3.org/1999/xlink" version="1.1"><path d="M0 76L35.5 68.2C71 60.3 142 44.7 212.8 45.3C283.7 46 354.3 63 425.2 64C496 65 567 50 637.8 51.3C708.7 52.7 779.3 70.3 850.2 74.5C921 78.7 992 69.3 1062.8 57.7C1133.7 46 1204.3 32 1275.2 32.5C1346 33 1417 48 1487.8 57.3C1558.7 66.7 1629.3 70.3 1664.7 72.2L1700 74L1700 121L1664.7 121C1629.3 121 1558.7 121 1487.8 121C1417 121 1346 121 1275.2 121C1204.3 121 1133.7 121 1062.8 121C992 121 921 121 850.2 121C779.3 121 708.7 121 637.8 121C567 121 496 121 425.2 121C354.3 121 283.7 121 212.8 121C142 121 71 121 35.5 121L0 121Z" fill="#0c0c0c" stroke-linecap="round" stroke-linejoin="miter"></path></svg>