<svg id="visual" viewBox="0 0 1700 120" width="1700" height="120" xmlns="http://www.w3.org/2000/svg" xmlns:xlink="http://www.w3.org/1999/xlink" version="1.1"><path d="M0 59L35.5 63.5C71 68 142 77 212.8 74.2C283.7 71.3 354.3 56.7 425.2 49C496 41.3 567 40.7 637.8 45.2C708.7 49.7 779.3 59.3 850.2 64.8C921 70.3 992 71.7 1062.8 65.3C1133.7 59 1204.3 45 1275.2 39.8C1346 34.7 1417 38.3 1487.8 39.8C1558.7 41.3 1629.3 40.7 1664.7 40.3L1700 40L1700 121L1664.7 121C1629.3 121 1558.7 121 1487.8 121C1417 121 1346 121 1275.2 121C1204.3 121 1133.7 121 1062.8 121C992 121 921 121 850.2 121C779.3 121 708.7 121 637.8 121C567 121 496 121 425.2 121C354.3 121 283.7 121 212.8 121C142 121 71 121 35.5 121L0 121Z" fill="#0028a6" stroke-linecap="round" stroke-linejoin="miter"></path></svg>