<svg id="visual" viewBox="0 0 1700 140" width="1700" height="140" xmlns="http://www.w3.org/2000/svg" xmlns:xlink="http://www.w3.org/1999/xlink" version="1.1"><path d="M0 81L35.5 83.5C71 86 142 91 212.8 90C283.7 89 354.3 82 425.2 73C496 64 567 53 637.8 52C708.7 51 779.3 60 850.2 69.3C921 78.7 992 88.3 1062.8 83.7C1133.7 79 1204.3 60 1275.2 61.5C1346 63 1417 85 1487.8 91.8C1558.7 98.7 1629.3 90.3 1664.7 86.2L1700 82L1700 141L1664.7 141C1629.3 141 1558.7 141 1487.8 141C1417 141 1346 141 1275.2 141C1204.3 141 1133.7 141 1062.8 141C992 141 921 141 850.2 141C779.3 141 708.7 141 637.8 141C567 141 496 141 425.2 141C354.3 141 283.7 141 212.8 141C142 141 71 141 35.5 141L0 141Z" fill="#0028a6" stroke-linecap="round" stroke-linejoin="miter"></path></svg>