<svg id="visual" viewBox="0 0 230 330" width="230" height="330" xmlns="http://www.w3.org/2000/svg" xmlns:xlink="http://www.w3.org/1999/xlink" version="1.1"><rect x="0" y="0" width="230" height="330" fill="#000532"></rect><path d="M122 0L122.8 13.8C123.7 27.7 125.3 55.3 122.5 82.8C119.7 110.3 112.3 137.7 110 165.2C107.7 192.7 110.3 220.3 110.8 247.8C111.3 275.3 109.7 302.7 108.8 316.3L108 330L0 330L0 316.3C0 302.7 0 275.3 0 247.8C0 220.3 0 192.7 0 165.2C0 137.7 0 110.3 0 82.8C0 55.3 0 27.7 0 13.8L0 0Z" fill="#0028a6" stroke-linecap="round" stroke-linejoin="miter"></path></svg>